<svg width="18" height="14" xmlns="http://www.w3.org/2000/svg" version="1.0" preserveAspectRatio="xMidYMid meet">
 <metadata>Created by potrace 1.16, written by Peter Selinger 2001-2019</metadata>

 <g>
  <title>Layer 1</title>
  <!-- Created with SVG Editor - http://github.com/mzalive/SVG Editor/ -->
  <g stroke="null">
   <desc stroke="null">Created with Fabric.js 1.7.22</desc>

   <g stroke="null" transform="translate(128 128) scale(0.72 0.72)">
    <g stroke=" none" fill-rule=" nonzero" fill=" none" stroke-miterlimit="10" stroke-linejoin=" miter" stroke-linecap=" butt" stroke-dasharray=" none" stroke-width="0" transform="translate(-175.05 -175.05) scale(3.89 3.89)">
     <path stroke=" none" fill-rule=" nonzero" fill=" rgb(0,0,0)" stroke-miterlimit="10" stroke-linejoin=" miter" stroke-dasharray=" none" stroke-linecap=" butt" d="m3.54522,-0.6283c-0.04485,0.03823 -0.05041,0.10559 -0.01217,0.15051l1.84516,2.16904l-5.96318,0c-0.05902,0 -0.1068,0.04777 -0.1068,0.1068s0.04777,0.1068 0.1068,0.1068l5.96318,0l-1.84516,2.16904c-0.03816,0.04485 -0.03282,0.11228 0.01217,0.15051c0.04493,0.03823 0.11228,0.03275 0.15051,-0.0121l1.99489,-2.34512c0.001,-0.00114 0.00135,-0.00271 0.00228,-0.00384c0.00498,-0.00641 0.00983,-0.01296 0.01331,-0.0205c0.00085,-0.00185 0.00114,-0.00377 0.00185,-0.00562c0.00093,-0.00228 0.00157,-0.00449 0.00228,-0.00676c0.00342,-0.01061 0.0057,-0.0215 0.0057,-0.0324c0,0 0,0 0,0s0,0 0,0c0,-0.01089 -0.00228,-0.02179 -0.0057,-0.0324c-0.00071,-0.00228 -0.00135,-0.00449 -0.00228,-0.00669c-0.00071,-0.00185 -0.00107,-0.00377 -0.00192,-0.00562c-0.00349,-0.00755 -0.00833,-0.0141 -0.01331,-0.0205c-0.00093,-0.00121 -0.00128,-0.00271 -0.00228,-0.00384l-1.99482,-2.34512c-0.03823,-0.04493 -0.10559,-0.05041 -0.15051,-0.01217z"/>
    </g>
   </g>
  </g>
 </g>
</svg>