<svg width="211.99999999999997" height="56" xmlns="http://www.w3.org/2000/svg" version="1.0" preserveAspectRatio="xMidYMid meet">
 <metadata>Created by potrace 1.16, written by Peter Selinger 2001-2019</metadata>

 <g>
  <title>Layer 1</title>
  <!-- Created with SVG Editor - http://github.com/mzalive/SVG Editor/ -->
  <text stroke="#000" fill="#000000" stroke-width="0" stroke-opacity="null" fill-opacity="null" x="683.35594" y="166.22747" id="svg_31" font-size="24" font-family="'Palatino Linotype', 'Book Antiqua', Palatino, serif" text-anchor="start" xml:space="preserve" transform="matrix(2.44076 0 0 2.25523 -794.119 -484.37)">САМОБРАНКА</text>
  <g id="svg_3" stroke="null">
   <g transform="translate(0 883) scale(0.1 -0.1)" fill="#000000" id="svg_1" stroke="null">
    <path fill="#000000" d="m416.88103,8824.89599c-23.93513,-1.45061 -26.4737,-2.17592 -26.4737,-9.06634c0,-7.25307 0.72531,-7.25307 126.92872,-6.16511c69.99212,1.08796 126.92872,0.72531 126.92872,-0.36265c0,-1.08796 -58.02456,-61.28844 -128.74199,-134.18179c-96.46583,-99.72971 -127.29138,-133.45648 -124.39015,-136.72036c2.17592,-2.53857 5.07715,-4.71449 6.52776,-4.71449c1.81327,0 63.82701,62.73905 138.17098,139.62159l135.63241,139.62159l53.31006,0l53.67272,0l0,-188.94247l0,-188.94247l-11.60491,7.25307c-6.52776,3.98919 -22.84717,13.05553 -36.26535,20.67125l-24.66044,13.41818l0,41.3425c0,38.80392 -0.36265,41.3425 -7.25307,41.3425c-6.89042,0 -7.25307,-2.53857 -7.25307,-65.27763c0,-35.9027 -0.72531,-65.27763 -1.81327,-65.27763c-1.08796,0 -16.68206,8.34103 -34.45208,18.49533l-32.63881,18.49533l0,81.23438l0,81.23438l-9.06634,0l-9.06634,0l0,-106.98278c0,-58.74987 -1.08796,-106.98278 -2.53857,-106.98278c-1.81327,0 -16.68206,7.97838 -33.72678,17.40737l-30.82555,17.40737l-1.08796,42.43046c-1.08796,42.43046 -1.08796,42.43046 -9.79164,42.43046l-9.06634,0l0,-65.27763c0,-35.9027 -1.08796,-65.27763 -2.17592,-65.27763c-1.45061,0 -7.61572,2.90123 -13.78083,6.52776c-6.16511,3.98919 -19.22063,11.24226 -29.01228,16.68206l-17.40737,10.1543l19.22063,19.58329c16.31941,16.68206 18.49533,19.94594 14.14349,25.02309c-4.35184,5.07715 -10.51695,0.36265 -53.31006,-42.43046c-42.79311,-42.43046 -47.50761,-48.59557 -42.79311,-53.31006c4.71449,-5.07715 7.97838,-2.90123 28.28697,16.68206l22.48452,22.48452l39.16658,-21.75921c21.39656,-11.96757 41.70515,-21.39656 45.33169,-20.67125c5.07715,1.08796 6.52776,5.80246 7.25307,25.02309l1.08796,24.29778l35.17739,-19.58329c19.22063,-10.8796 38.80392,-19.58329 43.51842,-19.58329c7.97838,0 7.97838,-0.36265 7.97838,-59.83783l0,-59.83783l30.82555,0l30.82555,0l0,68.90416c0,53.31006 1.08796,69.26682 4.71449,68.54151c15.23145,-1.81327 16.68206,0 17.77002,23.57248l1.08796,23.57248l34.45208,-19.58329c18.85798,-10.8796 38.07862,-19.94594 42.43046,-19.94594l8.34103,0l0.72531,200.54738c0.72531,109.88401 0.36265,202.36065 -0.36265,204.89922c-0.72531,3.26388 -38.80392,4.35184 -175.88694,3.62654c-95.74052,-0.36265 -186.40389,-1.45061 -200.54738,-1.81327l0,0l-0.00002,0zm252.76948,-470.72423l0,-67.0909l-14.50614,0l-14.50614,0l0,74.34397l0,74.34397l14.50614,-7.25307l14.50614,-7.25307l0,-67.0909z" id="svg_2" stroke="null"/>
   </g>
   <g id="svg_4" stroke="null">
    <metadata fill="#000000" stroke="null">Created by potrace 1.16, written by Peter Selinger 2001-2019</metadata>
    <g id="svg_5" transform="translate(0 883) scale(0.1 -0.1)" fill="#000000" stroke="null">
     <path fill="#000000" id="svg_6" d="m0.75801,8823.07813c-0.72531,-2.53857 -1.08796,-95.01521 -0.36265,-204.89922l0.72531,-200.54738l8.34103,0c4.35184,0 23.57248,9.06634 42.43046,19.94594l34.45208,19.58329l1.08796,-23.57248c1.08796,-23.57248 2.53857,-25.38574 18.13267,-23.57248c3.26388,0.72531 4.35184,-15.23145 4.35184,-68.54151l0,-68.90416l30.82555,0l30.82555,0l0,59.83783c0,59.47517 0,59.83783 8.34103,59.83783c4.35184,0 23.93513,8.70368 43.15576,19.58329l35.17739,19.58329l1.08796,-24.29778c0.72531,-19.22063 2.17592,-23.93513 7.25307,-25.02309c3.62654,-0.72531 23.93513,8.70368 45.33169,20.67125l39.16658,21.75921l22.48452,-22.48452c20.3086,-19.58329 23.57248,-21.75921 28.28697,-16.68206c4.71449,4.71449 0,10.8796 -42.79311,53.31006c-42.79311,42.79311 -48.95822,47.50761 -53.31006,42.43046c-4.35184,-5.07715 -2.17592,-8.34103 14.14349,-25.02309l19.22063,-19.58329l-17.40737,-10.1543c-9.79164,-5.4398 -22.84717,-12.69287 -29.01228,-16.68206c-6.16511,-3.62654 -12.33022,-6.52776 -13.78083,-6.52776c-1.08796,0 -2.17592,29.37493 -2.17592,65.27763l0,65.27763l-9.06634,0c-8.70368,0 -8.70368,0 -9.79164,-42.43046l-1.08796,-42.43046l-30.82555,-17.40737c-17.04471,-9.42899 -31.91351,-17.40737 -33.36412,-17.40737c-1.81327,0 -2.90123,48.23291 -2.90123,106.98278l0,106.98278l-9.06634,0l-9.06634,0l0,-81.23438l0,-81.23438l-32.63881,-18.49533c-17.77002,-10.1543 -33.36412,-18.49533 -34.45208,-18.49533c-1.08796,0 -1.81327,29.37493 -1.81327,65.27763c0,62.73905 -0.36265,65.27763 -7.25307,65.27763c-6.89042,0 -7.25307,-2.53857 -7.25307,-41.3425l0,-41.3425l-24.29778,-13.41818c-13.78083,-7.61572 -30.10024,-16.68206 -36.26535,-20.67125l-11.96757,-7.25307l0,188.94247l0,188.94247l53.67272,0l53.31006,0l135.63241,-139.62159c74.34397,-76.88254 136.35771,-139.62159 138.17098,-139.62159c1.45061,0 4.35184,2.17592 6.52776,4.71449c2.90123,3.26388 -27.92432,36.99066 -124.39015,136.72036c-70.71743,72.89335 -128.74199,133.09383 -128.74199,134.18179c0,1.08796 57.29925,1.45061 126.92872,0.36265c124.02749,-1.08796 126.92872,-1.08796 126.92872,5.80246c0,6.52776 -3.62654,7.61572 -38.80392,9.42899c-21.0339,1.45061 -111.33462,2.53857 -200.54738,2.53857c-126.92872,0 -162.83142,-1.08796 -163.55672,-4.35184l0,-0.00001l-0.00001,0.00001zm152.67712,-461.65789l0,-74.34397l-14.50614,0l-14.50614,0l0,67.0909l0,67.0909l13.78083,6.89042c7.25307,3.98919 13.78083,7.25307 14.50614,7.61572c0.36265,0 0.72531,-33.36412 0.72531,-74.34397l0,0z" stroke="null"/>
    </g>
   </g>
  </g>
  <text transform="matrix(0.541391 0 0 0.541391 205.284 -46.0798)" xml:space="preserve" text-anchor="start" font-family="'Palatino Linotype', 'Book Antiqua', Palatino, serif" font-size="29" id="svg_40" y="115.76379" x="-209.42272" fill-opacity="null" stroke-opacity="null" stroke-width="0" fill="#000000" stroke="#000">СКАТЕРТЬ</text>
  <text transform="matrix(0.541391 0 0 0.541391 205.284 -46.0798)" xml:space="preserve" text-anchor="start" font-family="'Palatino Linotype', 'Book Antiqua', Palatino, serif" font-size="29" id="svg_42" y="149.24804" x="-209.11279" fill-opacity="null" stroke-opacity="null" stroke-width="0" fill="#000000" stroke="#000">САМОБРАНКА</text>
  <text transform="matrix(0.541391 0 0 0.541391 205.284 -46.0798)" xml:space="preserve" text-anchor="start" font-family="'Palatino Linotype', 'Book Antiqua', Palatino, serif" font-size="20" id="svg_43" y="177.84922" x="-209.0673" fill-opacity="null" stroke-opacity="null" stroke-width="0" fill="#000000" stroke="#000">МАГАЗИН КЛЕЁНОК</text>
 </g>
</svg>